<?xml version="1.0" encoding="UTF-8"?>
<svg id="_레이어_2" data-name="레이어 2" xmlns="http://www.w3.org/2000/svg" viewBox="0 0 1313.62 275.46">
  <defs>
    <style>
      .cls-1 {
        fill: #fff;
      }

      .cls-2 {
        fill: #dc143c;
      }
    </style>
  </defs>
  <g id="_레이어_1-2" data-name="레이어 1">
    <g>
      <g>
        <path class="cls-1" d="M0,251.25v-10.22L241.03,0h68.87v275.46h-68.87v-34.43h-103.3l68.87-68.87h34.43v-68.87l-172.16,172.16H0v-24.21Z"/>
        <path class="cls-1" d="M334.57,82.59V0h241.03l-68.87,68.87h-103.3v206.6h-68.87V82.59ZM437.87,103.3h68.87L610.04,0h34.43v68.87l-103.3,103.3h-103.3v-68.87Z"/>
        <path class="cls-1" d="M669.15,34.43V0h68.87l68.87,68.87-51.65,51.65-86.08-86.08ZM772.44,137.73L910.18,0h68.87v34.43l-137.73,137.73v103.3h-68.87v-137.73Z"/>
      </g>
      <path class="cls-2" d="M1003.72,251.25v-10.22L1244.75,0h68.87v34.43l-241.03,241.03h-68.87v-24.21ZM1003.72,34.43V0h68.87l68.87,68.87-51.65,51.65-86.08-86.08ZM1175.88,206.6l51.65-51.65,86.08,86.08v34.43h-68.87l-68.87-68.87Z"/>
    </g>
  </g>
</svg>